<?xml version="1.0" encoding="utf-8"?>
<!-- Generator: Adobe Illustrator 23.0.1, SVG Export Plug-In . SVG Version: 6.00 Build 0)  -->
<svg version="1.1" id="Layer_1" xmlns="http://www.w3.org/2000/svg" xmlns:xlink="http://www.w3.org/1999/xlink" x="0px" y="0px"
	 viewBox="0 0 473.8 300" style="enable-background:new 0 0 473.8 300;" xml:space="preserve">
<style type="text/css">
	.st0{fill:#FFFFFF;}
	.st1{fill:none;stroke:#DBFF08;stroke-width:7;stroke-linecap:round;stroke-miterlimit:10;}
</style>
<g>
	<g>
		<path class="st0" d="M152.8,163.5c-11.8,0-23.3,4-32.5,11.3c-1.9,1.5-2.2,4.2-0.7,6c1.5,1.9,4.2,2.2,6,0.7
			c7.8-6.2,17.1-9.5,27.1-9.5c24,0,43.5,19.5,43.5,43.5c0,32.3-33.7,63.3-43.5,71.6c-9.8-8.3-43.5-39.3-43.5-71.6
			c0-7.8,2.1-15.5,6.1-22.2c1.2-2,0.5-4.7-1.5-5.9s-4.7-0.5-5.9,1.5c-4.8,8-7.3,17.2-7.3,26.6c0,41.8,47.4,79,49.5,80.6
			c0.8,0.6,1.7,0.9,2.6,0.9s1.9-0.3,2.6-0.9c2-1.6,49.5-38.8,49.5-80.6C204.9,186.9,181.5,163.5,152.8,163.5z"/>
	</g>
</g>
<g>
	<g>
		<path class="st0" d="M152.8,192.3c-12.9,0-23.4,10.5-23.4,23.4c0,12.9,10.5,23.4,23.4,23.4c12.9,0,23.4-10.5,23.4-23.4
			C176.1,202.8,165.7,192.3,152.8,192.3z M152.8,230.4c-8.1,0-14.8-6.6-14.8-14.8c0-8.1,6.6-14.8,14.8-14.8s14.8,6.6,14.8,14.8
			C167.5,223.8,160.9,230.4,152.8,230.4z"/>
	</g>
</g>
<g>
	<g>
		<path class="st0" d="M344.6,67c-27.4,0-49.6,22.3-49.6,49.6c0,16.8,8,34.9,23.7,53.6c11.5,13.7,22.8,22.6,23.3,22.9
			c0.8,0.6,1.7,0.9,2.6,0.9c0.9,0,1.9-0.3,2.6-0.9c0.6-0.5,14.6-11.4,27.3-27.9c1.4-1.9,1.1-4.6-0.8-6c-1.9-1.4-4.6-1.1-6,0.8
			c-8.8,11.5-18.5,20.3-23.1,24.1c-9.4-8-41-37.2-41-67.6c0-22.6,18.4-41,41-41c22.6,0,41,18.4,41,41c0,9.2-2.9,19.2-8.7,29.6
			c-1.2,2.1-0.4,4.7,1.7,5.8c2.1,1.2,4.7,0.4,5.8-1.7c6.5-11.7,9.8-23.1,9.8-33.8C394.3,89.3,372,67,344.6,67z"/>
	</g>
</g>
<g>
	<g>
		<path class="st0" d="M344.6,94.3c-12.3,0-22.4,10-22.4,22.4c0,12.3,10,22.4,22.4,22.4s22.4-10,22.4-22.4S357,94.3,344.6,94.3z
			 M344.6,130.4c-7.6,0-13.8-6.2-13.8-13.8c0-7.6,6.2-13.8,13.8-13.8c7.6,0,13.8,6.2,13.8,13.8C358.4,124.3,352.2,130.4,344.6,130.4
			z"/>
	</g>
</g>
<g>
	<g>
		<path class="st0" d="M167.6,27.7c-11.4,0-20.8,9.3-20.8,20.8s9.3,20.8,20.8,20.8c11.4,0,20.8-9.3,20.8-20.8S179.1,27.7,167.6,27.7
			z M167.6,60.6c-6.7,0-12.2-5.5-12.2-12.2s5.5-12.2,12.2-12.2c6.7,0,12.2,5.5,12.2,12.2C179.8,55.2,174.3,60.6,167.6,60.6z"/>
	</g>
</g>
<g>
	<g>
		<path class="st0" d="M167.6,2.9c-25.1,0-45.6,20.4-45.6,45.6c0,7.9,2,16.2,5.8,24.7c1,2.2,3.5,3.1,5.7,2.1c2.2-1,3.1-3.5,2.1-5.7
			c-3.3-7.4-5-14.5-5-21.1c0-20.4,16.6-37,37-37s37,16.6,37,37c0,27.3-28.1,53.5-37,61.1c-4.8-4.1-15.1-13.6-23.7-25.7
			c-1.4-1.9-4-2.4-6-1c-1.9,1.4-2.4,4-1,6c12.2,17.4,27.4,29.3,28.1,29.8c0.8,0.6,1.7,0.9,2.6,0.9s1.9-0.3,2.6-0.9
			c0.4-0.3,10.8-8.4,21.3-21c14.4-17.2,21.6-33.7,21.6-49.1C213.2,23.3,192.8,2.9,167.6,2.9z"/>
	</g>
</g>
<g>
	<g>
		<path class="st0" d="M225.5,138.2l-5.3-2.3c-2.2-1-4.7,0-5.7,2.2c-1,2.2,0,4.7,2.2,5.7l5.3,2.3c0.6,0.2,1.1,0.4,1.7,0.4
			c1.7,0,3.2-1,3.9-2.6C228.7,141.7,227.7,139.2,225.5,138.2z"/>
	</g>
</g>
<g>
	<g>
		<path class="st0" d="M309.5,174.9l-5.3-2.3c-2.2-1-4.7,0-5.7,2.2c-1,2.2,0,4.7,2.2,5.7l5.3,2.3c0.6,0.2,1.1,0.4,1.7,0.4
			c1.7,0,3.2-1,3.9-2.6C312.7,178.4,311.7,175.9,309.5,174.9z"/>
	</g>
</g>
<g>
	<g>
		<path class="st0" d="M204.5,129l-5.3-2.3c-2.2-1-4.7,0-5.7,2.2c-1,2.2,0,4.7,2.2,5.7l5.3,2.3c0.6,0.2,1.1,0.4,1.7,0.4
			c1.7,0,3.2-1,3.9-2.6C207.6,132.5,206.7,130,204.5,129z"/>
	</g>
</g>
<g>
	<g>
		<path class="st0" d="M183.5,119.9l-5.3-2.3c-2.2-1-4.7,0-5.7,2.2c-1,2.2,0,4.7,2.2,5.7l5.3,2.3c0.6,0.2,1.1,0.4,1.7,0.4
			c1.7,0,3.2-1,3.9-2.6C186.6,123.3,185.6,120.8,183.5,119.9z"/>
	</g>
</g>
<g>
	<g>
		<path class="st0" d="M330.5,184.1l-5.3-2.3c-2.2-1-4.7,0-5.7,2.2s0,4.7,2.2,5.7l5.3,2.3c0.6,0.2,1.1,0.4,1.7,0.4
			c1.7,0,3.2-1,3.9-2.6C333.7,187.6,332.7,185.1,330.5,184.1z"/>
	</g>
</g>
<g>
	<g>
		<path class="st0" d="M288.5,165.8l-5.3-2.3c-2.2-1-4.7,0-5.7,2.2c-1,2.2,0,4.7,2.2,5.7l5.3,2.3c0.6,0.2,1.1,0.4,1.7,0.4
			c1.7,0,3.2-1,3.9-2.6C291.7,169.3,290.7,166.7,288.5,165.8z"/>
	</g>
</g>
<g>
	<g>
		<path class="st0" d="M267.5,156.6l-5.3-2.3c-2.2-1-4.7,0-5.7,2.2c-1,2.2,0,4.7,2.2,5.7l5.3,2.3c0.6,0.2,1.1,0.4,1.7,0.4
			c1.7,0,3.2-1,3.9-2.6C270.7,160.1,269.7,157.5,267.5,156.6z"/>
	</g>
</g>
<g>
	<g>
		<path class="st0" d="M246.5,147.4l-5.3-2.3c-2.2-1-4.7,0-5.7,2.2s0,4.7,2.2,5.7l5.3,2.3c0.6,0.2,1.1,0.4,1.7,0.4
			c1.7,0,3.2-1,3.9-2.6C249.7,150.9,248.7,148.4,246.5,147.4z"/>
	</g>
</g>
<g>
	<g>
		<path class="st0" d="M178.7,285.1c-1.1-2.1-3.7-2.9-5.8-1.8l-5.1,2.7c-2.1,1.1-2.9,3.7-1.8,5.8c0.8,1.5,2.3,2.3,3.8,2.3
			c0.7,0,1.4-0.2,2-0.5l5.1-2.7C179.1,289.8,179.9,287.2,178.7,285.1z"/>
	</g>
</g>
<g>
	<g>
		<path class="st0" d="M199,274.3c-1.1-2.1-3.7-2.9-5.8-1.8l-5.1,2.7c-2.1,1.1-2.9,3.7-1.8,5.8c0.8,1.5,2.3,2.3,3.8,2.3
			c0.7,0,1.4-0.2,2-0.5l5.1-2.7C199.3,279,200.1,276.4,199,274.3z"/>
	</g>
</g>
<g>
	<g>
		<path class="st0" d="M219.2,263.5c-1.1-2.1-3.7-2.9-5.8-1.8l-5.1,2.7c-2.1,1.1-2.9,3.7-1.8,5.8c0.8,1.5,2.3,2.3,3.8,2.3
			c0.7,0,1.4-0.2,2-0.5l5.1-2.7C219.5,268.2,220.3,265.6,219.2,263.5z"/>
	</g>
</g>
<g>
	<g>
		<path class="st0" d="M320.3,209.6c-1.1-2.1-3.7-2.9-5.8-1.8l-5.1,2.7c-2.1,1.1-2.9,3.7-1.8,5.8c0.8,1.5,2.3,2.3,3.8,2.3
			c0.7,0,1.4-0.2,2-0.5l5.1-2.7C320.7,214.3,321.5,211.7,320.3,209.6z"/>
	</g>
</g>
<g>
	<g>
		<path class="st0" d="M340.6,198.8c-1.1-2.1-3.7-2.9-5.8-1.8l-5.1,2.7c-2.1,1.1-2.9,3.7-1.8,5.8c0.8,1.5,2.3,2.3,3.8,2.3
			c0.7,0,1.4-0.2,2-0.5l5.1-2.7C340.9,203.5,341.7,200.9,340.6,198.8z"/>
	</g>
</g>
<g>
	<g>
		<path class="st0" d="M300.1,220.4c-1.1-2.1-3.7-2.9-5.8-1.8l-5.1,2.7c-2.1,1.1-2.9,3.7-1.8,5.8c0.8,1.5,2.3,2.3,3.8,2.3
			c0.7,0,1.4-0.2,2-0.5l5.1-2.7C300.4,225.1,301.2,222.5,300.1,220.4z"/>
	</g>
</g>
<g>
	<g>
		<path class="st0" d="M239.4,252.7c-1.1-2.1-3.7-2.9-5.8-1.8l-5.1,2.7c-2.1,1.1-2.9,3.7-1.8,5.8c0.8,1.5,2.3,2.3,3.8,2.3
			c0.7,0,1.4-0.2,2-0.5l5.1-2.7C239.7,257.4,240.5,254.8,239.4,252.7z"/>
	</g>
</g>
<g>
	<g>
		<path class="st0" d="M279.9,231.2c-1.1-2.1-3.7-2.9-5.8-1.8l-5.1,2.7c-2.1,1.1-2.9,3.7-1.8,5.8c0.8,1.5,2.3,2.3,3.8,2.3
			c0.7,0,1.4-0.2,2-0.5l5.1-2.7C280.2,235.9,281,233.3,279.9,231.2z"/>
	</g>
</g>
<g>
	<g>
		<path class="st0" d="M259.7,242c-1.1-2.1-3.7-2.9-5.8-1.8l-5.1,2.7c-2.1,1.1-2.9,3.7-1.8,5.8c0.8,1.5,2.3,2.3,3.8,2.3
			c0.7,0,1.4-0.2,2-0.5l5.1-2.7C260,246.7,260.8,244.1,259.7,242z"/>
	</g>
</g>
<path class="st1" d="M436.7,47.2c9.9-1.2,19.5-4,27.7-8.1"/>
<path class="st1" d="M438,143.9c10.8-0.4,21.7,0.6,32,2.9"/>
<path class="st1" d="M427.4,227c8.6,6.4,15.5,14.1,20.3,22.3"/>
<path class="st1" d="M61.3,57.1c-10.1-3.5-19.9-8-29-13.3"/>
<path class="st1" d="M53.2,124.5c-16.6,2.1-33.5,2.2-50.1,0.2"/>
<path class="st1" d="M22.4,227c12.8-3.3,24.9-9.2,35.3-17.1"/>
</svg>
