<?xml version="1.0" encoding="utf-8"?>
<!-- Generator: Adobe Illustrator 23.0.1, SVG Export Plug-In . SVG Version: 6.00 Build 0)  -->
<svg version="1.1" id="Layer_1" xmlns="http://www.w3.org/2000/svg" xmlns:xlink="http://www.w3.org/1999/xlink" x="0px" y="0px"
	 viewBox="0 0 473.8 300" style="enable-background:new 0 0 473.8 300;" xml:space="preserve">
<style type="text/css">
	.st0{fill:#FFFFFF;}
	.st1{fill:none;stroke:#CFFF06;stroke-width:7;stroke-linecap:round;stroke-miterlimit:10;}
	.st2{fill:none;stroke:#CFFF06;stroke-width:7;stroke-linecap:round;stroke-linejoin:round;stroke-miterlimit:10;}
</style>
<g id="Capa_1">
	<g>
		<g>
			<g>
				<path class="st0" d="M334.1,258.6c-1.6-1.9-4.3-2.1-6.2-0.5c-25.4,21.4-57.6,33.1-90.9,33.1c-4.1,0-8.2-0.2-12.2-0.5
					c-5.2-9.3-22-36.3-41.9-39.2c-0.8-0.1-1.6-0.2-2.2-2.5c-0.7-2.6-0.8-6.7-0.9-11.3c-0.2-9.8-0.4-21.9-6.5-33.7
					c-7.2-13.9-18.9-14.2-26.7-14.4s-8.3-0.5-8.3-5.1c0-17.4-18-33.1-42.4-37.5c0.6-29.4,10.2-57.3,27.7-81c1.4-1.9,1-4.7-0.9-6.1
					c-1.9-1.4-4.7-1-6.1,0.9c-19.3,26-29.5,56.9-29.5,89.3c0,40.1,15.6,77.7,43.9,106.1c0.6,0.6,1.2,1.2,1.8,1.7
					c0.2,0.2,0.5,0.5,0.7,0.7c0.6,0.6,1.2,1.1,1.8,1.7c0.3,0.2,0.5,0.5,0.8,0.7c0.7,0.6,1.4,1.2,2.1,1.9c0.2,0.1,0.3,0.3,0.5,0.4
					c0.8,0.7,1.6,1.4,2.4,2.1l0.1,0.1c26.9,22.4,60.4,34.6,95.9,34.6c35.3,0,69.6-12.5,96.5-35.2
					C335.5,263.3,335.7,260.5,334.1,258.6z M143.8,256c-0.3-0.2-0.5-0.5-0.8-0.7c-0.5-0.4-0.9-0.8-1.4-1.3c-0.4-0.3-0.7-0.7-1.1-1
					c-0.4-0.4-0.8-0.8-1.2-1.2s-0.8-0.8-1.2-1.2s-0.8-0.8-1.1-1.1s-0.7-0.7-1-1c-1.1-1.1-2.2-2.2-3.2-3.4
					c-22.4-24.6-35.4-56.1-36.7-89.2l0,0c19.2,4,33.5,16,33.5,28.6c0,13.4,10.2,13.7,16.9,13.9c7.4,0.2,14.3,0.4,19.1,9.6
					c5.1,9.9,5.3,20.9,5.5,29.8c0.2,10.3,0.4,20.9,10.6,22.4c7.3,1.1,15.8,7.4,24.5,18.4c3,3.8,5.6,7.6,7.6,10.7
					C187.8,285,163.6,273.4,143.8,256z"/>
			</g>
		</g>
	</g>
	<g>
		<g>
			<g>
				<path class="st0" d="M356,58.6C354.5,26,327.5,0,294.6,0c-7.8,0-15.3,1.5-22.3,4.2C260.8,1.4,249,0,237.1,0
					c-21,0-41.2,4.2-60.3,12.6c-18.4,8.1-34.7,19.6-48.6,34.2c-1.7,1.8-1.6,4.5,0.2,6.2c0.9,0.8,1.9,1.2,3,1.2
					c1.2,0,2.3-0.5,3.2-1.4c13.1-13.8,28.5-24.6,45.8-32.2c17.9-7.9,37-11.9,56.7-11.9c7.7,0,15.4,0.6,22.9,1.9
					c-12.4,8.4-21.5,21.3-25.2,36.3c-8.2,2.5-14.8,5.6-19.7,9.3c-8.6,6.6-11.9,12.4-9.8,17.5c1.8,4.2,6.7,6.3,15.5,6.3
					c4,0,8.7-0.4,14.3-1.2c0.9,3.6,2.1,7.3,3.5,11c-6.2,1.6-10,5.8-14.8,11.2c-2.7,3-5.7,6.4-9.9,10.3c-9.1,8.5-9.2,15.8-7.6,20.4
					c3,9,14.4,15.1,32.1,17.1c12,1.3,28.3,5.7,30,27.9c0.5,6.9-1.5,10.6-4.2,15.3c-1.6,2.8-3.4,6-4.6,10.1c-1.9,6.2-1.9,13.8,0,20.4
					c2.3,8.4,7.3,14.5,14.4,17.8c2.3,1.1,4.6,1.5,7,1.5c12.6,0,25.3-13.4,31.2-19.8c0.6-0.6,1.1-1.2,1.6-1.6
					c3.6-3.7,4.9-11.4,6.5-23.7c0.7-5.3,1.5-11.3,2.5-13.6c1.8-4.1,13.9-15,21.9-21.5c1-0.8,1.6-2,1.6-3.2c0.1-1.3-0.4-2.5-1.3-3.4
					c-0.1-0.1-12.2-11.7-21-23.7c0.8-0.9,1.6-1.9,2.4-2.9c3.5-4.2,6.8-8.4,9.7-12.6c2.8,2.4,5.9,5.3,9.4,8.8
					c4.1,4.1,9.5,6.1,16.1,6.1c4.4,0,9.4-0.9,14.9-2.8c1.1,7.2,1.7,14.6,1.7,22c0,35.9-13.5,70.1-37.9,96.3
					c-1.7,1.8-1.6,4.6,0.2,6.2c0.8,0.8,1.9,1.2,3,1.2c1.2,0,2.3-0.5,3.2-1.4c26-27.9,40.3-64.2,40.3-102.3
					C387.1,116.6,376.3,85,356,58.6z M213.7,70.2c0.5-1.1,2.2-3.5,6.8-7c3.3-2.5,7.6-4.7,12.8-6.6c-0.1,1.6-0.2,3.2-0.2,4.8
					c0,2.8,0.2,5.7,0.6,8.6C219.6,72.1,215,70.8,213.7,70.2z M335.5,157.8c-6.5,5.4-18.1,15.7-20.7,21.8c-1.5,3.4-2.2,9.2-3.1,15.9
					c-0.8,5.9-2.2,16.8-4.1,18.7c-0.5,0.5-1,1.1-1.7,1.8c-5.3,5.6-19.2,20.4-28.2,16.3c-10.3-4.7-12.2-19.1-9.6-27.7
					c0.9-3.1,2.4-5.6,3.8-8.3c2.8-5,6-10.6,5.3-20.3c-0.7-9.1-3.4-16.4-8.2-22.2c-6.4-7.7-16.3-12.3-29.6-13.8
					c-16.1-1.8-23.4-6.9-24.7-11.1c-1.3-4,2.1-8.3,5.3-11.2c4.5-4.2,7.8-7.9,10.5-10.9c5-5.6,7.3-8.2,11.8-8.8
					c4.9,9.9,11.6,20.1,20.3,30.4c14.4,17.2,28.6,28.3,29.2,28.7c0.8,0.6,1.7,0.9,2.7,0.9c0.9,0,1.9-0.3,2.7-0.9
					c0.5-0.4,9.7-7.6,20.8-19.3C324.2,146,331.3,153.6,335.5,157.8z M294.6,148c-11.1-9.4-52.7-47-52.7-86.5
					c0-29.1,23.6-52.7,52.7-52.7s52.7,23.6,52.7,52.7C347.3,100.9,305.7,138.7,294.6,148z M351.8,118.4c-4.1-4.1-7.6-7.4-10.8-10
					c7.5-12.3,12.3-24.3,14.1-35.8c9.3,14.2,16.1,30.1,19.8,46.7C366.8,122.1,357.2,123.7,351.8,118.4z"/>
			</g>
		</g>
	</g>
	<g>
		<g>
			<g>
				<path class="st0" d="M195.2,85.5c-1.6-3.8-4.1-6.3-7.4-7.6c-6.8-2.6-14.9,1.2-22.8,4.8c-1.6,0.8-3.3,1.5-4.9,2.2
					c-13.8,5.9-23.1,29.2-17.2,43c1.6,3.8,4.1,6.3,7.5,7.7c1.8,0.7,3.6,1,5.5,1c6.1,0,12.9-3,19.6-6c1.2-0.5,2.3-1,3.5-1.5
					c6.5-2.8,12.2-9.7,15.5-19C197.7,101.1,198,91.9,195.2,85.5z M186.3,107.1c-2.4,6.8-6.5,12.1-10.7,13.9c-1.2,0.5-2.4,1-3.6,1.6
					c-6.4,2.8-14.4,6.4-18.3,4.8c-0.7-0.3-1.8-0.9-2.6-3c-1.8-4.3-1.3-11.1,1.3-17.7c2.6-6.6,6.9-11.9,11.2-13.7
					c1.7-0.7,3.5-1.6,5.2-2.3c5-2.3,10.5-4.9,14.1-4.9c0.7,0,1.3,0.1,1.8,0.3c0.6,0.2,1.6,0.8,2.5,2.8
					C189,93.3,188.7,100.3,186.3,107.1z"/>
			</g>
		</g>
	</g>
	<g>
		<g>
			<path class="st0" d="M294.6,34.3c-2.4,0-4.4,2-4.4,4.4s2,4.4,4.4,4.4c10.1,0,18.4,8.2,18.4,18.4s-8.2,18.4-18.4,18.4
				c-10.1,0-18.4-8.2-18.4-18.4c0-4.8,1.9-9.4,5.3-12.9c1.7-1.7,1.7-4.5-0.1-6.2c-1.7-1.7-4.5-1.7-6.2,0.1c-5,5.1-7.8,11.9-7.8,19
				c0,15,12.2,27.2,27.2,27.2s27.2-12.2,27.2-27.2C321.7,46.5,309.6,34.3,294.6,34.3z"/>
		</g>
	</g>
	<path class="st1" d="M65.9,64.1c-10.6-1.7-21.3-3.5-31.3-9.1S11.5,41.1,3.5,29.4"/>
	<path class="st1" d="M51.9,151.7c-9.2,1.5-18.5,1.6-27.7,0.1"/>
	<path class="st1" d="M65.5,247.5C46,256.1,26.2,262.9,6.2,268"/>
	<path class="st1" d="M401.8,54.9c24.3,1.4,48.8-9,68.5-29"/>
	<path class="st2" d="M414.5,146.5c12.1-0.5,24.2,0.1,36.3,1.8c-0.8,0.1-1.7,0.2-2.5,0.3"/>
	<path class="st1" d="M397.3,253.2c4.4,3.4,9.1,5.9,13.7,8.4c17.8,9.6,36,19.3,55.1,21.1"/>
</g>
</svg>
