<?xml version="1.0" encoding="utf-8"?>
<!-- Generator: Adobe Illustrator 23.0.1, SVG Export Plug-In . SVG Version: 6.00 Build 0)  -->
<svg version="1.1" id="Layer_1" xmlns="http://www.w3.org/2000/svg" xmlns:xlink="http://www.w3.org/1999/xlink" x="0px" y="0px"
	 viewBox="0 0 473.8 300" style="enable-background:new 0 0 473.8 300;" xml:space="preserve">
<style type="text/css">
	.st0{fill:#FFFFFF;}
	.st1{fill:none;stroke:#CFFF06;stroke-width:7;stroke-linecap:round;stroke-linejoin:round;stroke-miterlimit:10;}
</style>
<g>
	<g>
		<path class="st0" d="M207.5,101.7c-1.4-3.3-3.5-5.5-6.3-6.6c-5.7-2.2-12.2,0.9-18.5,3.8c-1.3,0.6-2.6,1.2-3.8,1.8
			c-11.1,4.9-18.7,24.1-13.9,35.4c1.4,3.3,3.5,5.5,6.4,6.7c1.5,0.6,3.1,0.9,4.7,0.9c5,0,10.4-2.4,15.6-4.8c0.9-0.4,1.8-0.8,2.7-1.2
			C205.3,132.9,212.4,113.4,207.5,101.7z M198.6,118.9c-1.8,5.1-4.8,9.1-7.7,10.4c-0.9,0.4-1.9,0.8-2.8,1.2
			c-4.5,2.1-10.8,4.9-13.4,3.8c-0.3-0.1-0.9-0.3-1.5-1.8c-2.8-6.8,2.6-20.6,9.2-23.5c1.4-0.6,2.7-1.2,4.1-1.9
			c3.4-1.6,8-3.8,10.5-3.8c0.4,0,0.7,0.1,1,0.2c0.2,0.1,0.7,0.3,1.3,1.7C200.6,108.5,200.3,113.8,198.6,118.9z"/>
	</g>
</g>
<g>
	<g>
		<path class="st0" d="M302.9,135.6c-11.5,0-22.4,3.7-31.5,10.8c-2,1.5-2.3,4.4-0.8,6.4s4.3,2.4,6.3,0.9c7.5-5.9,16.6-9,26.1-9
			c23.7,0,43,19.6,43,43.7c0,24.1-19.3,43.7-43,43.7c-23.7,0-43-19.6-43-43.7c0-7.9,2.1-15.7,6.1-22.4c1.3-2.2,0.6-5-1.5-6.3
			c-2.1-1.3-4.9-0.6-6.1,1.6c-4.8,8.2-7.3,17.5-7.3,27.1c0,29.1,23.3,52.9,51.9,52.9c28.6,0,51.9-23.7,51.9-52.9
			C354.8,159.3,331.5,135.6,302.9,135.6z"/>
	</g>
</g>
<g>
	<g>
		<path class="st0" d="M407.1,269.2l-33-33.6c-0.2-0.2-0.4-0.3-0.6-0.5V133.7c0-2.5-2-4.6-4.5-4.6c-2.5,0-4.5,2-4.5,4.6V154
			c-3.2-5.8-7.1-11.1-11.8-15.9c-3.2-3.3-6.6-6.1-10.3-8.6c4.8-5.7,8.6-12.4,10.6-18.5c4.3-10.5,8.2-21.1,11.5-31.3v35.9
			c0,2.5,2,4.6,4.5,4.6c2.5,0,4.5-2,4.5-4.6V50.6c0-2.5-2-4.6-4.5-4.6h-1h-223V4.2c0-2.5-2-4.6-4.5-4.6c-18.3,0-33.2,15.2-33.2,33.8
			v181c0,0.3,0,0.7,0.1,1c0.6,7.9,4,15.2,9.6,20.8c6,6,13.9,9.2,22.3,9.2h118.2h2.4c12.3,9.7,27.2,14.9,43,14.9
			c14.3,0,27.9-4.3,39.5-12.3l6.6,6.7c-1.7,1.8-1.7,4.7,0,6.4l33,33.6c3.5,3.5,8,5.3,12.5,5.3c4.5,0,9.1-1.8,12.5-5.3h0
			C414,287.7,414,276.2,407.1,269.2z M364.5,223.5v8.9l-3.3-3.4C362.4,227.2,363.5,225.3,364.5,223.5z M260.1,62.6
			c1.3-1.1,4.1-3.3,10.6-7.4h91.6c-4,15.6-10.3,34.3-17.6,52.4c-0.1,0.1-0.1,0.3-0.1,0.4c-1.7,5.5-5.4,11.7-10,16.8
			c-26.4-13.5-59.4-9-81.4,13.3c-3.5,3.6-6.6,7.5-9.3,11.6c-1.6-0.3-3.2-0.6-4.9-0.8c-11.7-1.3-16.8-5-17.7-7.7
			c-0.8-2.6,1.9-5.8,3.7-7.4c3.4-3.3,6-6.2,8-8.5c4.7-5.4,6-6.8,11.3-6.4c22.6,1.6,36.9-0.3,42.5-5.9c3.3-3.2,3.9-7.8,1.7-12
			c-2.3-4.3-7.2-7.6-13.9-9.2c-7.2-1.8-16.2-1.5-26,0.6c-17.5,3.9-24.7,3.7-27.4,3.2c0.7-0.9,1.9-2.1,4-3.7
			c12.7-9.8,41.3-10.3,41.6-10.3c1.9,0,3.6-1.3,4.2-3.2c0.6-1.9-0.1-3.9-1.7-5.1c-5.3-3.8-9.5-9-9.3-10.5
			C260,62.8,260,62.8,260.1,62.6z M145.1,55.2h31.4c-3.3,10.3-12.4,31.6-31.4,35C145.1,90.2,145.1,55.2,145.1,55.2z M136.8,236.2
			c-11.3-1.3-20.1-10.7-20.4-22.5c0-0.8,0.1-1.6,0.2-2.4c0-0.1,0-0.1,0-0.2c0-0.3,0.1-0.6,0.1-0.8c0-0.2,0.1-0.4,0.1-0.6
			c0-0.1,0.1-0.3,0.1-0.4c2.3-11.1,12.1-19.5,23.7-19.5c2.5,0,4.5-2,4.5-4.6v-26.8c0-2.5-2-4.6-4.5-4.6s-4.5,2-4.5,4.6v22.6
			c-7,1-13.6,4.2-18.7,9.3c-0.4,0.4-0.7,0.7-1.1,1.1V33.5c0-12.1,8.5-22.1,19.8-24.3v130.9c0,2.5,2,4.6,4.5,4.6s4.5-2,4.5-4.6V99.4
			c13.1-1.8,24.3-10.1,32.6-24.5c4.5-7.8,7-15.4,8.3-19.7h69c-0.3,0.2-0.5,0.4-0.7,0.6c-2.2,2-3.3,4.7-3.1,7.5
			c0.2,3.5,2.3,6.9,4.8,9.9c-10.6,1.1-26.5,4.1-36.1,11.5c-7.1,5.5-9.7,10.6-7.7,15c3,6.6,14.1,7.1,38.4,1.6c18.9-4.2,28.4,0.9,30,4
			c0.4,0.7,0.2,0.9-0.1,1.1c-2.8,2.7-14.8,4.8-35.6,3.3c-9.7-0.7-13.6,3.8-18.6,9.5c-2,2.3-4.3,4.9-7.4,7.9
			c-7.7,7.3-7.1,13.8-6.1,17c2.4,7.4,11.4,12.4,25.3,13.9c0.4,0,0.8,0.1,1.3,0.2c-4.4,9.4-6.7,19.8-6.7,30.6
			c0,8.3,1.4,16.4,4.1,24.1c-5.8-2.4-12.1-3.4-18.8-2.9c-13.8,0.9-16.9-1.8-20.1-4.7c-4.2-3.8-8.4-6.7-19.4-5.8
			C157.9,201,141.6,227.6,136.8,236.2z M147.1,236.4L147.1,236.4c6.7-10.9,19.2-26.9,31.9-27.9c8.2-0.6,10,1,12.8,3.5
			c4,3.6,9,8.1,26.6,7c12.5-0.8,21,4.6,26.5,10.4c1.6,2.3,3.3,4.6,5.2,6.7c0.1,0.1,0.1,0.2,0.2,0.3L147.1,236.4L147.1,236.4z
			 M346.4,232.9c-1.9,2-4,3.8-6.2,5.5c-0.1,0-0.1,0.1-0.2,0.2c-10.6,8.2-23.5,12.7-37.1,12.7c-14.2,0-27.7-4.9-38.6-13.9
			c0,0,0,0,0,0c-1.2-1-2.4-2.1-3.6-3.2c0,0-0.1-0.1-0.1-0.1c-0.4-0.4-0.8-0.8-1.2-1.1c-0.8-0.9-1.6-1.7-2.4-2.6c-1.3-2-3-4.3-5-6.4
			c0,0,0,0,0,0c-6.9-10.3-10.6-22.4-10.6-35.1c0-16.7,6.4-32.4,18-44.2c12-12.2,27.7-18.3,43.4-18.3s31.5,6.1,43.4,18.3
			c11.6,11.8,18,27.5,18,44.2c0,13.8-4.4,26.9-12.4,37.7c-0.1,0.1-0.1,0.1-0.2,0.2C350.1,228.9,348.3,231,346.4,232.9z M349.6,242.4
			c1.1-1,2.1-2,3.2-3c1-1,2-2.1,2.9-3.2l5.8,5.9l-6.1,6.2L349.6,242.4z M400.7,288.3c-3.4,3.5-9,3.5-12.4,0l-29.8-30.3l12.4-12.6
			l29.8,30.3C404.2,279.1,404.2,284.8,400.7,288.3z"/>
	</g>
</g>
<path class="st1" d="M274.1,176.7c-3.4,9.4-1.7,20.6,4.5,28.5c6.2,7.9,16.5,12.1,26.3,10.8"/>
<path class="st1" d="M83.8,105.5c-16-8.8-32.3-17.1-48.8-25"/>
<path class="st1" d="M84.8,195.3c-12.9,4.8-25.9,9.7-38.8,14.5"/>
<path class="st1" d="M401.9,150c6.5,1.5,13.3-0.4,19.8-2.4c11.8-3.6,23.5-7.2,35.3-10.8"/>
</svg>
