<?xml version="1.0" encoding="utf-8"?>
<!-- Generator: Adobe Illustrator 23.0.1, SVG Export Plug-In . SVG Version: 6.00 Build 0)  -->
<svg version="1.1" id="Layer_1" xmlns="http://www.w3.org/2000/svg" xmlns:xlink="http://www.w3.org/1999/xlink" x="0px" y="0px"
	 viewBox="0 0 473.8 300" style="enable-background:new 0 0 473.8 300;" xml:space="preserve">
<style type="text/css">
	.st0{fill:none;stroke:#CFFF06;stroke-width:7;stroke-linecap:round;stroke-linejoin:round;stroke-miterlimit:10;}
	.st1{fill:#FFFFFF;}
</style>
<path class="st0" d="M73.4,70.9c-16-8.8-32.3-17.1-48.8-25"/>
<path class="st0" d="M48.5,273.6c-12.6,5.8-25.2,11.5-37.8,17.3"/>
<path class="st0" d="M456.6,282.1c-12.6-5.7-25.3-11.4-37.9-17.1"/>
<path class="st0" d="M401.4,78.4c6.7,0.3,13-3,18.9-6.2c10.9-5.8,21.7-11.6,32.6-17.4"/>
<g>
	<g>
		<path class="st1" d="M364.4,184.6c-2.7,0-4.8,2.2-4.8,4.8v24.1c0,2.7,2.2,4.8,4.8,4.8c2.7,0,4.8-2.2,4.8-4.8v-24.1
			C369.2,186.8,367,184.6,364.4,184.6z"/>
	</g>
</g>
<g>
	<g>
		<path class="st1" d="M364.4,161.9c-2.7,0-4.8,2.2-4.8,4.8v8.7c0,2.7,2.2,4.8,4.8,4.8c2.7,0,4.8-2.2,4.8-4.8v-8.7
			C369.2,164.1,367,161.9,364.4,161.9z"/>
	</g>
</g>
<g>
	<g>
		<path class="st1" d="M97.1,171.4c-10.3,0-18.7,8.4-18.7,18.7c0,10.3,8.4,18.7,18.7,18.7s18.7-8.4,18.7-18.7
			C115.8,179.8,107.4,171.4,97.1,171.4z M97.1,199.3c-5,0-9.1-4.1-9.1-9.1c0-5,4.1-9.1,9.1-9.1s9.1,4.1,9.1,9.1
			C106.2,195.2,102.1,199.3,97.1,199.3z"/>
	</g>
</g>
<g>
	<g>
		<path class="st1" d="M240.1,39.7c-16.5,0-29.9,13.4-29.9,29.9s13.4,29.9,29.9,29.9S270,86.1,270,69.6S256.6,39.7,240.1,39.7z
			 M240.1,89.9c-11.2,0-20.2-9.1-20.2-20.2c0-11.2,9.1-20.2,20.2-20.2s20.2,9.1,20.2,20.2S251.3,89.9,240.1,89.9z"/>
	</g>
</g>
<g>
	<g>
		<path class="st1" d="M364.8,97.5h-62.1c3.3-9.5,5-18.8,5-27.9c0-37.3-30.4-67.7-67.7-67.7c-20.6,0-39.9,9.2-52.8,25.3
			c-1.7,2.1-1.3,5.1,0.7,6.8c2.1,1.7,5.1,1.3,6.8-0.7c11.1-13.8,27.6-21.7,45.3-21.7c32,0,58,26,58,58c0,43.4-45.8,84.9-58,95.2
			c-12.2-10.3-58-51.8-58-95.2c0-7.2,1.3-14.1,3.8-20.8c1-2.5-0.3-5.3-2.8-6.2c-2.5-1-5.3,0.3-6.2,2.8c-3,7.7-4.5,15.9-4.5,24.2
			c0,9,1.7,18.3,5,27.9H90c-15,0-27.3,12.2-27.3,27.3v130.8c0,15,12.2,27.3,27.3,27.3h274.8c15,0,27.3-12.2,27.3-27.3V124.8
			C392.1,109.7,379.8,97.5,364.8,97.5z M237.2,174.9c0.9,0.7,1.9,1,3,1c1,0,2.1-0.3,3-1c0.7-0.5,16.3-12.7,32.2-31.6
			c4.4-5.2,8.3-10.4,11.8-15.5h38.7l-59.6,38c-1.2,0.7-2,2-2.2,3.3c-0.2,1.4,0.2,2.8,1.1,3.8l40.5,48.2c1,1.1,2.3,1.7,3.7,1.7
			c1.1,0,2.2-0.4,3.1-1.1c2-1.7,2.3-4.8,0.6-6.8l-37-44l61.5-39.2v112.4l-12.2-14.5c-1.7-2-4.8-2.3-6.8-0.6c-2,1.7-2.3,4.8-0.6,6.8
			l14.1,16.7h-35.2l-55.5-66.3c-1.5-1.8-4.2-2.3-6.2-1L191.3,212c-2.3,1.4-3,4.4-1.6,6.6c1.4,2.3,4.4,3,6.6,1.6l40.1-24.5l47.7,56.9
			H143.5l36.3-22.2c2.3-1.4,3-4.4,1.6-6.6c-1.4-2.3-4.4-3-6.6-1.6l-43.6,26.7v-33.7l89.4-55C229.8,169.2,236.7,174.6,237.2,174.9z
			 M205,143.3c2.9,3.5,5.9,6.8,8.7,9.8l-82.5,50.7v-76h62C196.7,132.9,200.6,138.1,205,143.3z M382.4,255.6L382.4,255.6
			c0,9.7-7.9,17.6-17.6,17.6H90c-9.7,0-17.6-7.9-17.6-17.6V124.8c0-9.7,7.9-17.6,17.6-17.6h91.4c1.7,3.6,3.6,7.3,5.7,11h-60.8
			c-2.7,0-4.8,2.2-4.8,4.8v89.5v45c0,0.2,0,0.4,0,0.6c0,0.1,0,0.1,0,0.2c0,0.2,0.1,0.3,0.1,0.4c0,0,0,0.1,0,0.1
			c0.1,0.4,0.3,0.7,0.4,1.1c0,0,0,0.1,0.1,0.1c0.1,0.1,0.2,0.3,0.3,0.4c0,0,0.1,0.1,0.1,0.1c0.1,0.1,0.2,0.3,0.4,0.4
			c0,0,0,0,0.1,0.1c0.1,0.1,0.2,0.2,0.4,0.3c0,0,0.1,0.1,0.1,0.1c0.1,0.1,0.3,0.2,0.4,0.3c0,0,0,0,0,0c0,0,0,0,0,0
			c0.2,0.1,0.3,0.2,0.5,0.3c0,0,0.1,0,0.1,0c0.1,0.1,0.3,0.1,0.4,0.1c0,0,0.1,0,0.1,0c0.1,0,0.3,0.1,0.4,0.1c0,0,0.1,0,0.1,0
			c0.2,0,0.4,0,0.6,0h168.1h47.8c0.2,0,0.4,0,0.6,0c0.1,0,0.1,0,0.2,0c0.2,0,0.4-0.1,0.5-0.1c0,0,0,0,0.1,0c0.2-0.1,0.4-0.1,0.6-0.2
			c0,0,0.1,0,0.1,0c0.2-0.1,0.3-0.2,0.5-0.3c0,0,0.1,0,0.1-0.1c0.2-0.1,0.3-0.2,0.5-0.4c0,0,0.1-0.1,0.1-0.1
			c0.1-0.1,0.2-0.2,0.4-0.4c0,0,0.1-0.1,0.1-0.1c0.1-0.2,0.3-0.3,0.4-0.5c0,0,0,0,0-0.1c0.1-0.2,0.2-0.3,0.3-0.5c0,0,0,0,0-0.1
			c0,0,0,0,0,0c0.1-0.2,0.2-0.4,0.2-0.6c0,0,0,0,0,0c0.1-0.2,0.1-0.4,0.1-0.6c0-0.1,0-0.1,0-0.2c0-0.2,0-0.4,0-0.5c0,0,0-0.1,0-0.1
			c0,0,0,0,0,0V122.9c0-0.2,0-0.4,0-0.5c0,0,0-0.1,0-0.1c0-0.2-0.1-0.5-0.1-0.7c0,0,0,0,0,0c0,0,0,0,0,0c-0.1-0.2-0.2-0.5-0.3-0.7
			c0,0,0-0.1-0.1-0.1c-0.1-0.2-0.2-0.4-0.3-0.6c0,0,0,0-0.1-0.1c-0.1-0.2-0.3-0.3-0.4-0.5c0,0,0,0-0.1-0.1c-0.2-0.2-0.3-0.3-0.5-0.4
			c0,0-0.1-0.1-0.1-0.1c-0.2-0.1-0.4-0.3-0.6-0.4c0,0,0,0,0,0c-0.2-0.1-0.4-0.2-0.6-0.3c0,0-0.1,0-0.1,0c-0.2-0.1-0.4-0.1-0.7-0.2
			c0,0-0.1,0-0.1,0c-0.2,0-0.5-0.1-0.7-0.1h-49.2c2.1-3.7,4-7.3,5.7-11h66c9.7,0,17.6,7.9,17.6,17.6V255.6z"/>
	</g>
</g>
</svg>
